<svg xmlns="http://www.w3.org/2000/svg" viewBox="0 0 800 500">
<rect width="800" height="500" rx="24" fill="#faf6f0"/>
<circle cx="714" cy="84" r="58" fill="#eed7c6" fill-opacity=".55"/>
<circle cx="82" cy="424" r="70" fill="#eed7c6" fill-opacity=".5"/>
<circle cx="116" cy="94" r="10" fill="#c2593a" fill-opacity=".35"/>
<circle cx="676" cy="188" r="8" fill="#8a5a44" fill-opacity=".45"/>
<rect x="150" y="72" width="470" height="44" rx="12" fill="#ffffff"/>
<circle cx="183" cy="94" r="13" fill="#c2593a"/>
<line x1="208" y1="94" x2="588" y2="94" stroke="#eed7c6" stroke-width="10" stroke-linecap="round"/>
<rect x="150" y="136" width="466" height="280" rx="14" fill="#ffffff"/>
<path d="M164 136h438a14 14 0 0 1 14 14v24H150v-24a14 14 0 0 1 14-14Z" fill="#eed7c6"/>
<path d="M152 176h44v224h-24a20 20 0 0 1-20-20Z" fill="#eed7c6" fill-opacity=".7"/>
<path d="M196 176V414M280 176V414M364 176V414M448 176V414M532 176V414M150 222H616M150 270H616M150 318H616M150 366H616" stroke="#eed7c6" stroke-width="3" fill="none"/>
<g stroke="#8a5a44" stroke-width="5" stroke-linecap="round">
<line x1="166" y1="198" x2="180" y2="198"/>
<line x1="166" y1="246" x2="180" y2="246"/>
<line x1="166" y1="294" x2="180" y2="294"/>
<line x1="166" y1="342" x2="180" y2="342"/>
<line x1="166" y1="390" x2="180" y2="390"/>
</g>
<rect x="281.5" y="223.5" width="81" height="45" fill="#c2593a"/>
<line x1="298" y1="246" x2="346" y2="246" stroke="#ffffff" stroke-width="6" stroke-linecap="round"/>
<rect x="449.5" y="319.5" width="81" height="45" fill="#c2593a"/>
<line x1="466" y1="342" x2="514" y2="342" stroke="#ffffff" stroke-width="6" stroke-linecap="round"/>
<g fill="#c2593a">
<rect x="292" y="398" width="18" height="14" rx="3"/>
<rect x="348" y="378" width="18" height="34" rx="3"/>
</g>
<g fill="#8a5a44">
<rect x="320" y="388" width="18" height="24" rx="3"/>
<rect x="376" y="366" width="18" height="46" rx="3"/>
</g>
<rect x="546" y="252" width="12" height="10" rx="2" fill="#8a5a44"/>
<rect x="564" y="244" width="12" height="18" rx="2" fill="#c2593a"/>
<rect x="582" y="236" width="12" height="26" rx="2" fill="#8a5a44"/>
<circle cx="612" cy="396" r="56" fill="#c2593a" stroke="#faf6f0" stroke-width="8"/>
<path d="M628 380H596L612 396L596 412H628" fill="none" stroke="#ffffff" stroke-width="9" stroke-linecap="round" stroke-linejoin="round"/>
</svg>
