<svg xmlns="http://www.w3.org/2000/svg" viewBox="0 0 800 500">
<rect width="800" height="500" rx="24" fill="#faf6f0"/>
<rect x="330" y="90" width="140" height="18" rx="6" fill="#33241c"/>
<rect x="345" y="108" width="110" height="14" rx="5" fill="#8a5a44"/>
<g fill="#c2593a">
<path d="M280 122 h240 q46 40 46 96 v210 q-166 36 -332 0 v-210 q0 -56 46 -96 Z"/>
</g>
<path d="M280 122 h84 q-24 60 -10 306 l-74 -10 v-210 q0 -50 0 -86 Z" fill="#8a5a44" opacity="0.45"/>
<rect x="376" y="270" width="88" height="64" fill="#33241c"/>
<rect x="376" y="270" width="88" height="12" fill="#eed7c6"/>
<g stroke="#eed7c6" stroke-width="5" fill="none" opacity="0.85">
<path d="M300 160 q20 18 0 36 M320 152 q26 26 0 52 M340 146 q32 32 0 64"/>
<path d="M500 160 q-20 18 0 36 M480 152 q-26 26 0 52 M460 146 q-32 32 0 64"/>
</g>
<g transform="translate(600 220) rotate(24)">
<path d="M0 60 Q-58 30 -66 -28 Q0 6 66 -28 Q58 30 0 60 Z" fill="#eed7c6" stroke="#c2593a" stroke-width="5"/>
<line x1="0" y1="58" x2="0" y2="-24" stroke="#c2593a" stroke-width="5"/>
</g>
<g fill="#8a5a44">
<ellipse cx="180" cy="420" rx="42" ry="13"/>
<ellipse cx="180" cy="398" rx="42" ry="13"/>
<rect x="158" y="384" width="10" height="16" rx="3"/>
<rect x="192" y="384" width="10" height="16" rx="3"/>
</g>
</svg>
