<svg xmlns="http://www.w3.org/2000/svg" viewBox="0 0 800 500" width="800" height="500">
  <rect width="800" height="500" rx="24" fill="#faf6f0"/>
  <circle cx="85" cy="120" r="40" fill="#eed7c6"/>
  <circle cx="735" cy="90" r="30" fill="none" stroke="#eed7c6" stroke-width="9"/>
  <circle cx="740" cy="300" r="7" fill="#c2593a"/>
  <circle cx="60" cy="430" r="6" fill="#8a5a44"/>
  <rect x="700" y="430" width="20" height="7" rx="3.5" fill="#eed7c6"/>
  <path d="M340 192 c-38 0 -62 -24 -62 -54 c0 -28 22 -50 50 -52 c8 -34 40 -58 76 -58 c38 0 68 24 76 56 c30 2 52 24 52 52 c0 32 -26 56 -60 56 z" fill="#c2593a"/>
  <circle cx="378" cy="192" r="6" fill="#faf6f0"/>
  <circle cx="432" cy="192" r="6" fill="#faf6f0"/>
  <g stroke="#8a5a44" stroke-width="5" stroke-linecap="round" stroke-dasharray="1 12" fill="none">
    <path d="M378 198 L300 276"/>
    <path d="M432 198 L500 276"/>
    <path d="M405 198 V268"/>
  </g>
  <rect x="150" y="280" width="190" height="140" rx="16" fill="#ffffff" stroke="#33241c" stroke-width="6"/>
  <rect x="174" y="296" width="70" height="10" rx="5" fill="#eed7c6"/>
  <rect x="174" y="358" width="22" height="40" rx="4" fill="#eed7c6"/>
  <rect x="206" y="328" width="22" height="70" rx="4" fill="#c2593a"/>
  <rect x="238" y="343" width="22" height="55" rx="4" fill="#8a5a44"/>
  <rect x="270" y="308" width="22" height="90" rx="4" fill="#c2593a"/>
  <polyline points="185,352 217,330 249,340 281,314" fill="none" stroke="#33241c" stroke-width="4" stroke-linecap="round" stroke-linejoin="round"/>
  <rect x="460" y="280" width="190" height="140" rx="16" fill="#ffffff" stroke="#33241c" stroke-width="6"/>
  <circle cx="496" cy="320" r="18" fill="#eed7c6" stroke="#33241c" stroke-width="4"/>
  <circle cx="496" cy="315" r="6" fill="#8a5a44"/>
  <path d="M486 330 Q496 321 506 330 Z" fill="#8a5a44"/>
  <rect x="528" y="308" width="100" height="11" rx="5.5" fill="#eed7c6"/>
  <rect x="528" y="327" width="68" height="11" rx="5.5" fill="#eed7c6"/>
  <path d="M478 352 H632" stroke="#eed7c6" stroke-width="4"/>
  <rect x="486" y="368" width="64" height="26" rx="13" fill="#c2593a"/>
  <circle cx="537" cy="381" r="10" fill="#ffffff"/>
  <rect x="562" y="376" width="70" height="10" rx="5" fill="#eed7c6"/>
  <g stroke="#c2593a" stroke-width="9" stroke-linecap="round" fill="none">
    <path d="M400 288 A42 42 0 0 1 436 351"/>
    <path d="M400 372 A42 42 0 0 1 364 309"/>
  </g>
  <polygon points="429,363 441,354 431,348" fill="#c2593a"/>
  <polygon points="371,297 359,306 369,312" fill="#c2593a"/>
</svg>
